<svg xmlns="http://www.w3.org/2000/svg" version="1.1" xmlns:xlink="http://www.w3.org/1999/xlink" width="1500" height="163" viewBox="0 0 1500 163"><svg xml:space="preserve" width="1500" height="163" data-version="2" data-id="lg_vfPD1qVHQgQ2JgqPiu" viewBox="0 0 582 163" x="0" y="0"><rect width="100%" height="100%" fill="transparent"></rect><path fill="#28a745" d="M191.374 10.727h29.42v-7.52h-29.42Zm0 26.32h28.48v-7.52h-28.48Zm-4.42-33.84v65.8h7.99v-65.8Z"></path><rect width="33.84" height="65.8" x="-16.92" y="-32.9" fill="none" rx="0" ry="0" transform="translate(204.37 36.6)"></rect><path fill="#28a745" d="M239.124 25.767h-7.52v43.24h7.52Zm13.07 8.27 4.14-6.21q-1.7-1.78-3.72-2.39-2.02-.61-4.37-.61-3.01 0-5.92 2.35t-4.75 6.34q-1.83 4-1.83 9.17h3.38q0-3.11.62-5.55.61-2.44 2.2-3.85 1.6-1.41 4.42-1.41 1.88 0 3.1.51 1.23.52 2.73 1.65"></path><rect width="24.73" height="44.18" x="-12.37" y="-22.09" fill="none" rx="0" ry="0" transform="translate(244.47 47.42)"></rect><path fill="#28a745" d="M267.234 55.657q0-2.35 1.13-4.04 1.13-1.7 3.43-2.64 2.3-.94 5.97-.94 3.95 0 7.42.99 3.48.99 6.77 3.24v-4.41q-.66-.85-2.54-2.21-1.88-1.37-5.02-2.45-3.15-1.08-7.85-1.08-7.99 0-12.46 3.81-4.46 3.81-4.46 10.1 0 4.42 2.06 7.52 2.07 3.11 5.5 4.75 3.43 1.65 7.38 1.65 3.57 0 7.19-1.32 3.62-1.32 6.11-4.04 2.49-2.73 2.49-6.86l-1.5-5.64q0 3.38-1.64 5.97-1.65 2.58-4.42 3.99-2.78 1.41-6.25 1.41-2.73 0-4.84-.89-2.12-.9-3.29-2.68-1.18-1.79-1.18-4.23m-1.13-19.93q1.04-.75 2.82-1.79 1.79-1.03 4.37-1.78 2.59-.75 5.78-.75 1.98 0 3.76.37 1.79.38 3.15 1.22 1.37.85 2.12 2.31.75 1.45.75 3.71v29.99h7.52v-31.02q0-4.23-2.11-7.15-2.12-2.91-5.93-4.46-3.8-1.55-8.88-1.55-6.02 0-10.29 1.78-4.28 1.79-6.72 3.57Z"></path><rect width="36.75" height="45.12" x="-18.38" y="-22.56" fill="none" rx="0" ry="0" transform="translate(278.5 47.89)"></rect><path fill="#28a745" d="M336.794 42.687v26.32h7.52v-27.26q0-7.81-3.99-12.36-4-4.56-10.86-4.56-4.23 0-7.47 1.88-3.25 1.88-5.41 5.82v-6.76h-7.52v43.24h7.52v-26.32q0-3.2 1.36-5.64 1.37-2.45 3.86-3.81 2.49-1.36 5.78-1.36 4.51 0 6.86 2.72 2.35 2.73 2.35 8.09"></path><rect width="35.25" height="44.18" x="-17.63" y="-22.09" fill="none" rx="0" ry="0" transform="translate(327.19 47.42)"></rect><path fill="#28a745" d="M361.794 47.387q0-4.52 1.93-8.04 1.93-3.53 5.27-5.5 3.33-1.97 7.56-1.97 3.48 0 6.54 1.08 3.05 1.08 5.31 2.86 2.25 1.79 3.19 3.95v-9.4q-2.25-2.63-6.44-4.09-4.18-1.45-8.6-1.45-6.3 0-11.37 2.91-5.08 2.91-8.04 7.99-2.96 5.08-2.96 11.66 0 6.48 2.96 11.61 2.96 5.12 8.04 8.03 5.07 2.92 11.37 2.92 4.42 0 8.6-1.46 4.19-1.46 6.44-4.09v-9.4q-.94 2.07-3.19 3.9-2.26 1.83-5.31 2.92-3.06 1.08-6.54 1.08-4.23 0-7.56-2.02-3.34-2.03-5.27-5.5-1.93-3.48-1.93-7.99"></path><rect width="37.41" height="45.12" x="-18.7" y="-22.56" fill="none" rx="0" ry="0" transform="translate(373.39 47.89)"></rect><path fill="#28a745" d="M420.074 69.947q6.96 0 12.08-2.78 5.13-2.77 8.51-8.22l-6.11-3.86q-2.35 3.95-5.73 5.88-3.39 1.93-7.81 1.93-4.41 0-7.52-1.88-3.1-1.88-4.7-5.46-1.59-3.57-1.59-8.64.09-4.99 1.74-8.42 1.64-3.43 4.7-5.26 3.05-1.83 7.37-1.83 3.67 0 6.4 1.59 2.72 1.6 4.27 4.42 1.55 2.82 1.55 6.68 0 .65-.28 1.64-.28.99-.56 1.46l3.01-4.33h-31.02v6.4h36.94q0-.19.05-.9.04-.7.04-1.36 0-6.86-2.44-11.84-2.45-4.99-7-7.66-4.56-2.68-10.96-2.68-6.39 0-11.23 2.82-4.84 2.82-7.52 7.89-2.68 5.08-2.68 11.85 0 6.67 2.59 11.75 2.58 5.07 7.24 7.94 4.65 2.87 10.66 2.87"></path><rect width="41.83" height="45.12" x="-20.91" y="-22.56" fill="none" rx="0" ry="0" transform="translate(421 47.89)"></rect><path fill="#28a745" d="m453.544 55.747-5.92 3.67q1.22 2.54 3.62 4.98 2.39 2.44 5.87 4 3.48 1.55 7.8 1.55 6.68 0 10.77-3.76 4.08-3.76 4.08-9.4 0-3.86-1.83-6.3-1.83-2.45-4.93-4.18-3.11-1.74-6.87-3.25-2.25-.94-4.32-1.97-2.07-1.04-3.38-2.35-1.32-1.32-1.32-3.01 0-2.16 1.69-3.2 1.69-1.03 4.04-1.03 3.39 0 6.07 1.6t4.46 4.04l6.02-3.85q-1.32-2.45-3.67-4.33-2.35-1.88-5.4-3.01-3.06-1.12-6.54-1.12-3.47 0-6.72 1.22-3.24 1.22-5.26 3.76-2.02 2.54-2.02 6.39 0 3.76 1.93 6.25 1.92 2.49 4.79 4.04 2.87 1.55 5.69 2.68 2.53.94 4.79 2.02 2.26 1.08 3.71 2.64 1.46 1.55 1.46 3.8 0 2.54-1.83 4-1.84 1.45-5.03 1.45-2.63 0-4.84-.98-2.21-.99-3.9-2.68-1.7-1.69-3.01-3.67"></path><rect width="32.14" height="45.12" x="-16.07" y="-22.56" fill="none" rx="0" ry="0" transform="translate(464.2 47.89)"></rect><path fill="#28a745" d="M493.024 47.387q0-4.52 1.93-8.04 1.92-3.53 5.26-5.5 3.34-1.97 7.57-1.97 3.47 0 6.53 1.08 3.05 1.08 5.31 2.86 2.26 1.79 3.2 3.95v-9.4q-2.26-2.63-6.44-4.09-4.19-1.45-8.6-1.45-6.3 0-11.38 2.91-5.07 2.91-8.03 7.99-2.97 5.08-2.97 11.66 0 6.48 2.97 11.61 2.96 5.12 8.03 8.03 5.08 2.92 11.38 2.92 4.41 0 8.6-1.46 4.18-1.46 6.44-4.09v-9.4q-.94 2.07-3.2 3.9-2.26 1.83-5.31 2.92-3.06 1.08-6.53 1.08-4.23 0-7.57-2.02-3.34-2.03-5.26-5.5-1.93-3.48-1.93-7.99"></path><rect width="37.42" height="45.12" x="-18.71" y="-22.56" fill="none" rx="0" ry="0" transform="translate(504.61 47.89)"></rect><path fill="#28a745" d="M530.814 47.387q0 6.48 2.96 11.61 2.96 5.12 8.03 8.03 5.08 2.92 11.38 2.92 6.39 0 11.42-2.92 5.03-2.91 7.99-8.03 2.96-5.13 2.96-11.61 0-6.58-2.96-11.66t-7.99-7.99q-5.03-2.91-11.42-2.91-6.3 0-11.38 2.91-5.07 2.91-8.03 7.99-2.96 5.08-2.96 11.66m7.61 0q0-4.52 1.93-8.04 1.92-3.53 5.26-5.5 3.34-1.97 7.57-1.97t7.57 1.97q3.33 1.97 5.26 5.5 1.93 3.52 1.93 8.04 0 4.51-1.93 7.99-1.93 3.47-5.26 5.5-3.34 2.02-7.57 2.02t-7.57-2.02q-3.34-2.03-5.26-5.5-1.93-3.48-1.93-7.99"></path><rect width="44.74" height="45.12" x="-22.37" y="-22.56" fill="none" rx="0" ry="0" transform="translate(553.68 47.89)"></rect><path fill="#28a745" d="M186.954 90.307v65.8h7.99v-65.8Zm19.74 65.8q9.59 0 17.02-4.14 7.42-4.13 11.65-11.51t4.23-17.25q0-9.87-4.23-17.25-4.23-7.38-11.65-11.52-7.43-4.13-17.02-4.13h-15.32v7.99h15.32q5.55 0 10.16 1.74 4.6 1.74 7.89 4.98t5.08 7.85q1.78 4.6 1.78 10.34 0 5.73-1.78 10.34-1.79 4.6-5.08 7.85-3.29 3.24-7.89 4.98-4.61 1.74-10.16 1.74h-15.32v7.99Z"></path><rect width="52.64" height="65.8" x="-26.32" y="-32.9" fill="none" rx="0" ry="0" transform="translate(213.77 123.7)"></rect><path fill="#28a745" d="M267.144 157.047q6.95 0 12.08-2.78 5.12-2.77 8.5-8.22l-6.11-3.85q-2.35 3.94-5.73 5.87-3.39 1.93-7.8 1.93-4.42 0-7.52-1.88-3.11-1.88-4.7-5.45-1.6-3.58-1.6-8.65.09-4.98 1.74-8.42 1.64-3.43 4.7-5.26 3.05-1.83 7.38-1.83 3.66 0 6.39 1.6 2.72 1.59 4.28 4.41 1.55 2.82 1.55 6.68 0 .66-.29 1.64-.28.99-.56 1.46l3.01-4.32h-31.02v6.39h36.94q0-.19.05-.9.04-.7.04-1.36 0-6.86-2.44-11.84-2.44-4.98-7-7.66-4.56-2.68-10.95-2.68-6.4 0-11.24 2.82t-7.52 7.89q-2.68 5.08-2.68 11.85 0 6.67 2.59 11.75 2.58 5.07 7.24 7.94 4.65 2.87 10.67 2.87"></path><rect width="41.83" height="45.12" x="-20.91" y="-22.56" fill="none" rx="0" ry="0" transform="translate(268.06 134.99)"></rect><path fill="#28a745" d="M332.184 123.207q0-7.71 3.44-13.49 3.43-5.78 8.97-9.07 5.55-3.29 12.03-3.29 4.7 0 8.61 1.22 3.9 1.22 7.09 3.43 3.2 2.21 5.45 5.12v-10.52q-4.13-3.67-9.02-5.46-4.89-1.78-12.13-1.78-6.86 0-12.83 2.49t-10.48 7.05q-4.51 4.56-7.05 10.76-2.54 6.21-2.54 13.54 0 7.33 2.54 13.53 2.54 6.21 7.05 10.77t10.48 7.05q5.97 2.49 12.83 2.49 7.24 0 12.13-1.79 4.89-1.78 9.02-5.45v-10.53q-2.25 2.92-5.45 5.12-3.19 2.21-7.09 3.44-3.91 1.22-8.61 1.22-6.48 0-12.03-3.29-5.54-3.29-8.97-9.12-3.44-5.83-3.44-13.44"></path><rect width="54.05" height="67.68" x="-27.02" y="-33.84" fill="none" rx="0" ry="0" transform="translate(351.25 123.7)"></rect><path fill="#28a745" d="M394.794 142.757q0-2.35 1.13-4.04 1.12-1.69 3.43-2.63 2.3-.94 5.97-.94 3.94 0 7.42.98 3.48.99 6.77 3.25v-4.42q-.66-.85-2.54-2.21-1.88-1.36-5.03-2.45-3.15-1.08-7.85-1.08-7.99 0-12.45 3.81-4.47 3.81-4.47 10.11 0 4.41 2.07 7.52 2.07 3.1 5.5 4.74 3.43 1.65 7.38 1.65 3.57 0 7.19-1.32 3.62-1.31 6.11-4.04t2.49-6.86l-1.5-5.64q0 3.38-1.65 5.97-1.64 2.58-4.41 3.99-2.78 1.41-6.26 1.41-2.72 0-4.84-.89-2.11-.89-3.29-2.68-1.17-1.79-1.17-4.23m-1.13-19.93q1.03-.75 2.82-1.78 1.79-1.04 4.37-1.79 2.59-.75 5.78-.75 1.98 0 3.76.37 1.79.38 3.15 1.23 1.36.84 2.12 2.3.75 1.46.75 3.71v29.99h7.52v-31.02q0-4.23-2.12-7.15-2.11-2.91-5.92-4.46-3.81-1.55-8.88-1.55-6.02 0-10.29 1.78-4.28 1.79-6.73 3.58Z"></path><rect width="36.76" height="45.12" x="-18.38" y="-22.56" fill="none" rx="0" ry="0" transform="translate(406.05 134.99)"></rect><path fill="#28a745" d="M444.144 112.867h-7.52v43.24h7.52Zm13.06 8.27 4.14-6.2q-1.69-1.79-3.71-2.4-2.02-.61-4.37-.61-3.01 0-5.93 2.35-2.91 2.35-4.74 6.34-1.84 4-1.84 9.17h3.39q0-3.1.61-5.55.61-2.44 2.21-3.85 1.6-1.41 4.42-1.41 1.88 0 3.1.51 1.22.52 2.72 1.65"></path><rect width="24.72" height="44.18" x="-12.36" y="-22.09" fill="none" rx="0" ry="0" transform="translate(449.48 134.52)"></rect><path fill="#28a745" d="M468.864 82.787v73.32h7.52v-73.32Z"></path><rect width="7.52" height="73.32" x="-3.76" y="-36.66" fill="none" rx="0" ry="0" transform="translate(473.12 119.95)"></rect><path fill="#28a745" d="M486.724 134.487q0 6.48 2.96 11.61 2.96 5.12 8.04 8.03 5.07 2.92 11.37 2.92 6.39 0 11.42-2.92 5.03-2.91 7.99-8.03 2.96-5.13 2.96-11.61 0-6.58-2.96-11.66-2.96-5.07-7.99-7.99-5.03-2.91-11.42-2.91-6.3 0-11.37 2.91-5.08 2.92-8.04 7.99-2.96 5.08-2.96 11.66m7.61 0q0-4.51 1.93-8.04 1.93-3.52 5.27-5.5 3.33-1.97 7.56-1.97 4.23 0 7.57 1.97 3.34 1.98 5.26 5.5 1.93 3.53 1.93 8.04t-1.93 7.99q-1.92 3.48-5.26 5.5t-7.57 2.02q-4.23 0-7.56-2.02-3.34-2.02-5.27-5.5-1.93-3.48-1.93-7.99"></path><rect width="44.74" height="45.12" x="-22.37" y="-22.56" fill="none" rx="0" ry="0" transform="translate(509.6 134.99)"></rect><path fill="#28a745" d="M65.052 133.521h-19.74a4.554 4.554 0 0 1-4.548-4.548v-8.206c0-.406-.844-1.032-2.2-1.63l-.22-.103a36.408 36.408 0 0 1-7.442-4.485c-.594-.461-1.392-.587-1.852-.318l-6.822 3.938c-2.373 1.369-5.095.476-6.303-1.615l-9.87-17.096a4.517 4.517 0 0 1-.455-3.45 4.52 4.52 0 0 1 2.12-2.764l1.064 1.458-.904-1.551.47-.27 1.034 1.475-.9-1.552 5.404-3.119c1.64-.952 1.64-.952 1.497-1.972-.228-1.549-.329-3.148-.329-5.106v-.23c0-1.958.101-3.557.32-5.03l.014-.106c.138-.992.138-.992-1.562-1.977l-5.34-3.083.79-1.616-.896 1.554-.5-.288.793-1.613-.956 1.52a4.553 4.553 0 0 1-1.663-6.213l9.87-17.096a4.56 4.56 0 0 1 3.942-2.275c.795 0 1.58.211 2.271.61l6.93 4c.464.253 1.248.125 1.834-.331A36.705 36.705 0 0 1 38.4 45.92l.164-.075c1.357-.599 2.2-1.224 2.2-1.63v-8.207a4.555 4.555 0 0 1 4.549-4.55h19.74a4.554 4.554 0 0 1 4.548 4.55v8.206c0 .406.845 1.03 2.202 1.63l.194.09a36.676 36.676 0 0 1 7.468 4.498c.586.455 1.367.582 1.833.33l6.898-3.982c2.293-1.3 5.042-.434 6.246 1.646l9.87 17.097a4.555 4.555 0 0 1-1.666 6.213l-4.548 2.627-1.022-1.484.9 1.553-1.386.802c-1.75 1.014-1.75 1.014-1.608 2.035l.018.132c.213 1.49.309 3.06.309 4.974l-.002.115.002.116c0 1.95-.1 3.541-.315 5.004v.018c-.155 1.106-.155 1.106 1.544 2.091l1.439.83-.785 1.617.9-1.55 3.79 2.187-.792 1.616.896-1.556.686.398a4.494 4.494 0 0 1 2.093 2.747 4.517 4.517 0 0 1-.452 3.451l-9.872 17.093a4.567 4.567 0 0 1-3.944 2.275 4.558 4.558 0 0 1-2.271-.61l-6.9-3.983c-.494-.286-1.269-.147-1.862.312a36.646 36.646 0 0 1-7.436 4.484l-.258.117c-1.328.587-2.173 1.212-2.173 1.619v8.206a4.55 4.55 0 0 1-4.546 4.548m-25.039-17.669c1.864.825 4.34 2.228 4.34 4.915v8.206c0 .528.43.96.96.96h19.74a.964.964 0 0 0 .96-.96v-8.206c0-2.687 2.479-4.09 4.34-4.915l.147-.068a33.018 33.018 0 0 0 6.764-4.07c1.724-1.34 4.136-1.578 5.844-.595l2.848 1.643-.77 1.63.89-1.557 1.559.899-.732 1.649.897-1.554L90 115.099a1.006 1.006 0 0 0 .497.14.964.964 0 0 0 .835-.482l9.869-17.094a.948.948 0 0 0 .095-.73.95.95 0 0 0-.447-.582l-6.059-3.499c-2.7-1.564-3.755-2.68-3.377-5.553l.018-.138c.198-1.343.287-2.774.287-4.556l.001-.115.002-.116c0-1.781-.09-3.213-.28-4.506l-.02-.165c-.401-2.881.652-4.001 3.317-5.546l1.789-1.033 1.01 1.488-.898-1.553 3.447-1.99 1.003 1.492-.895-1.554.593-.344c.522-.302.68-.89.415-1.35l-9.87-17.094a.973.973 0 0 0-1.311-.352l-3.945 2.277-.953-1.522.85 1.581-2.952 1.701c-1.834.981-4.082.664-5.758-.64a33.074 33.074 0 0 0-6.758-4.067l-.097-.047c-1.923-.85-4.395-2.254-4.395-4.937v-8.206a.963.963 0 0 0-.962-.96h-19.74a.96.96 0 0 0-.959.96v8.206c0 2.686-2.476 4.09-4.34 4.914l-.85-1.585.743 1.633a33.207 33.207 0 0 0-6.803 4.088c-1.724 1.34-4.137 1.579-5.844.597l-2.85-1.646.77-1.628-.89 1.558-3.87-2.235c-.223-.13-.383-.172-.552-.172a.965.965 0 0 0-.834.48l-9.871 17.1a.963.963 0 0 0 .351 1.312l6.056 3.496c2.73 1.583 3.78 2.706 3.37 5.644l-.017.112c-.19 1.285-.278 2.717-.278 4.496l.002.141c-.002 1.867.087 3.3.277 4.595l.016.122c.41 2.917-.64 4.039-3.312 5.59l-6.048 3.488c-.287.166-.445.374-.512.62a.95.95 0 0 0 .095.729l9.871 17.096a.973.973 0 0 0 1.312.353l3.946-2.279.953 1.521-.828-1.593 2.924-1.684c.627-.363 1.454-.58 2.312-.58 1.216 0 2.442.434 3.452 1.218a32.903 32.903 0 0 0 6.726 4.053l.098.047-.146.307-.492 1.373z"></path><path fill="#28a745" d="M55.183 114.238c-17.443 0-31.634-14.19-31.634-31.632S37.739 50.97 55.183 50.97c17.443 0 31.634 14.191 31.634 31.635 0 17.443-14.19 31.632-31.634 31.632m0-59.677c-15.464 0-28.045 12.581-28.045 28.046 0 15.464 12.58 28.045 28.045 28.045 15.465 0 28.046-12.582 28.046-28.045 0-15.466-12.58-28.046-28.046-28.046"></path><path fill="#28a745" fill-rule="evenodd" d="m67.612 95.639-2.783-2.783 9.739-9.738-9.74-9.74 2.784-2.783 12.521 12.523zm-17.833-.716 8.547-25.58h3.937l-8.547 25.58zm-5.903-.269-12.522-12.52 12.522-12.522 2.783 2.783-9.74 9.739 9.74 9.739z"></path><path fill="#e9efe7" stroke="#28a745" stroke-width="4.3" d="M145.103 1.722v159.556"></path></svg></svg>